<?xml version="1.0" standalone="no"?>
<svg xmlns:xlink="http://www.w3.org/1999/xlink" id="wave" style="transform:rotate(180deg); transition: 0.3s" viewBox="0 0 1440 490" version="1.1" xmlns="http://www.w3.org/2000/svg"><defs><linearGradient id="sw-gradient-0" x1="0" x2="0" y1="1" y2="0"><stop stop-color="rgba(85, 32, 183, 1)" offset="0%"/><stop stop-color="rgba(85, 32, 183, 1)" offset="100%"/></linearGradient></defs><path style="transform:translate(0, 0px); opacity:1" fill="url(#sw-gradient-0)" d="M0,98L14.1,147C28.2,196,56,294,85,334.8C112.9,376,141,359,169,343C197.6,327,226,310,254,253.2C282.4,196,311,98,339,65.3C367.1,33,395,65,424,65.3C451.8,65,480,33,508,89.8C536.5,147,565,294,593,310.3C621.2,327,649,212,678,196C705.9,180,734,261,762,302.2C790.6,343,819,343,847,294C875.3,245,904,147,932,155.2C960,163,988,278,1016,285.8C1044.7,294,1073,196,1101,147C1129.4,98,1158,98,1186,98C1214.1,98,1242,98,1271,122.5C1298.8,147,1327,196,1355,187.8C1383.5,180,1412,114,1440,147C1468.2,180,1496,310,1525,343C1552.9,376,1581,310,1609,302.2C1637.6,294,1666,343,1694,375.7C1722.4,408,1751,425,1779,408.3C1807.1,392,1835,343,1864,294C1891.8,245,1920,196,1948,204.2C1976.5,212,2005,278,2019,310.3L2032.9,343L2032.9,490L2018.8,490C2004.7,490,1976,490,1948,490C1920,490,1892,490,1864,490C1835.3,490,1807,490,1779,490C1750.6,490,1722,490,1694,490C1665.9,490,1638,490,1609,490C1581.2,490,1553,490,1525,490C1496.5,490,1468,490,1440,490C1411.8,490,1384,490,1355,490C1327.1,490,1299,490,1271,490C1242.4,490,1214,490,1186,490C1157.6,490,1129,490,1101,490C1072.9,490,1045,490,1016,490C988.2,490,960,490,932,490C903.5,490,875,490,847,490C818.8,490,791,490,762,490C734.1,490,706,490,678,490C649.4,490,621,490,593,490C564.7,490,536,490,508,490C480,490,452,490,424,490C395.3,490,367,490,339,490C310.6,490,282,490,254,490C225.9,490,198,490,169,490C141.2,490,113,490,85,490C56.5,490,28,490,14,490L0,490Z"/></svg>