<?xml version="1.0" standalone="no"?>
<svg xmlns:xlink="http://www.w3.org/1999/xlink" id="wave" style="transform:rotate(180deg); transition: 0.3s" viewBox="0 0 1440 490" version="1.1" xmlns="http://www.w3.org/2000/svg"><defs><linearGradient id="sw-gradient-0" x1="0" x2="0" y1="1" y2="0"><stop stop-color="rgba(85, 32, 183, 1)" offset="0%"/><stop stop-color="rgba(85, 32, 183, 1)" offset="100%"/></linearGradient></defs><path style="transform:translate(0, 0px); opacity:1" fill="url(#sw-gradient-0)" d="M0,49L26.7,49C53.3,49,107,49,160,89.8C213.3,131,267,212,320,228.7C373.3,245,427,196,480,147C533.3,98,587,49,640,81.7C693.3,114,747,229,800,236.8C853.3,245,907,147,960,89.8C1013.3,33,1067,16,1120,73.5C1173.3,131,1227,261,1280,277.7C1333.3,294,1387,196,1440,171.5C1493.3,147,1547,196,1600,212.3C1653.3,229,1707,212,1760,228.7C1813.3,245,1867,294,1920,294C1973.3,294,2027,245,2080,212.3C2133.3,180,2187,163,2240,179.7C2293.3,196,2347,245,2400,245C2453.3,245,2507,196,2560,196C2613.3,196,2667,245,2720,294C2773.3,343,2827,392,2880,367.5C2933.3,343,2987,245,3040,187.8C3093.3,131,3147,114,3200,89.8C3253.3,65,3307,33,3360,57.2C3413.3,82,3467,163,3520,228.7C3573.3,294,3627,343,3680,367.5C3733.3,392,3787,392,3813,392L3840,392L3840,490L3813.3,490C3786.7,490,3733,490,3680,490C3626.7,490,3573,490,3520,490C3466.7,490,3413,490,3360,490C3306.7,490,3253,490,3200,490C3146.7,490,3093,490,3040,490C2986.7,490,2933,490,2880,490C2826.7,490,2773,490,2720,490C2666.7,490,2613,490,2560,490C2506.7,490,2453,490,2400,490C2346.7,490,2293,490,2240,490C2186.7,490,2133,490,2080,490C2026.7,490,1973,490,1920,490C1866.7,490,1813,490,1760,490C1706.7,490,1653,490,1600,490C1546.7,490,1493,490,1440,490C1386.7,490,1333,490,1280,490C1226.7,490,1173,490,1120,490C1066.7,490,1013,490,960,490C906.7,490,853,490,800,490C746.7,490,693,490,640,490C586.7,490,533,490,480,490C426.7,490,373,490,320,490C266.7,490,213,490,160,490C106.7,490,53,490,27,490L0,490Z"/></svg>